<svg width="35" height="39" viewBox="0 0 35 39" fill="none" xmlns="http://www.w3.org/2000/svg">
<path fill-rule="evenodd" clip-rule="evenodd" d="M17.5575 2.5362L17.5575 37.7915L16.5575 37.7915L16.5575 3.29195L1.70711 18.1423L0.999999 17.4352L16.5575 1.87773L16.5575 1.71619L16.719 1.71619L17.0818 1.35341L17.4354 0.999858L17.7889 1.35341L33.8708 17.4352L33.1636 18.1423L17.5575 2.5362Z" fill="#F9F1F1"/>
<path d="M17.5575 2.5362L17.805 2.28871L17.2075 1.69123L17.2075 2.5362L17.5575 2.5362ZM17.5575 37.7915L17.5575 38.1415L17.9075 38.1415L17.9075 37.7915L17.5575 37.7915ZM16.5575 37.7915L16.2075 37.7915L16.2075 38.1415L16.5575 38.1415L16.5575 37.7915ZM16.5575 3.29195L16.9075 3.29195L16.9075 2.44697L16.31 3.04446L16.5575 3.29195ZM1.70711 18.1423L1.45962 18.3898L1.70711 18.6373L1.95459 18.3898L1.70711 18.1423ZM0.999999 17.4352L0.752512 17.1877L0.505024 17.4352L0.752512 17.6827L0.999999 17.4352ZM16.5575 1.87773L16.805 2.12522L16.9075 2.02271L16.9075 1.87773L16.5575 1.87773ZM16.5575 1.71619L16.5575 1.36619L16.2075 1.36619L16.2075 1.71619L16.5575 1.71619ZM16.719 1.71619L16.719 2.06619L16.864 2.06619L16.9665 1.96368L16.719 1.71619ZM17.0818 1.35341L17.3293 1.6009L17.0818 1.35341ZM17.4354 0.999858L17.6829 0.752371L17.4354 0.504883L17.1879 0.752371L17.4354 0.999858ZM17.7889 1.35341L18.0364 1.10592L17.7889 1.35341ZM33.8708 17.4352L34.1182 17.6827L34.3657 17.4352L34.1182 17.1877L33.8708 17.4352ZM33.1636 18.1423L32.9162 18.3898L33.1636 18.6373L33.4111 18.3898L33.1636 18.1423ZM17.2075 2.5362L17.2075 37.7915L17.9075 37.7915L17.9075 2.5362L17.2075 2.5362ZM17.5575 37.4415L16.5575 37.4415L16.5575 38.1415L17.5575 38.1415L17.5575 37.4415ZM16.9075 37.7915L16.9075 3.29195L16.2075 3.29195L16.2075 37.7915L16.9075 37.7915ZM16.31 3.04446L1.45962 17.8949L1.95459 18.3898L16.805 3.53943L16.31 3.04446ZM1.95459 17.8949L1.24749 17.1877L0.752512 17.6827L1.45962 18.3898L1.95459 17.8949ZM1.24749 17.6827L16.805 2.12522L16.31 1.63024L0.752512 17.1877L1.24749 17.6827ZM16.9075 1.87773L16.9075 1.71619L16.2075 1.71619L16.2075 1.87773L16.9075 1.87773ZM16.5575 2.06619L16.719 2.06619L16.719 1.36619L16.5575 1.36619L16.5575 2.06619ZM16.9665 1.96368L17.3293 1.6009L16.8343 1.10592L16.4716 1.4687L16.9665 1.96368ZM17.3293 1.6009L17.6829 1.24735L17.1879 0.752371L16.8343 1.10592L17.3293 1.6009ZM17.1879 1.24735L17.5414 1.6009L18.0364 1.10592L17.6829 0.752371L17.1879 1.24735ZM17.5414 1.6009L33.6233 17.6827L34.1182 17.1877L18.0364 1.10592L17.5414 1.6009ZM33.6233 17.1877L32.9162 17.8949L33.4111 18.3898L34.1182 17.6827L33.6233 17.1877ZM33.4111 17.8949L17.805 2.28871L17.31 2.78369L32.9162 18.3898L33.4111 17.8949Z" fill="#424242"/>
</svg>
