<svg width="168" height="53" viewBox="0 0 168 53" fill="none" xmlns="http://www.w3.org/2000/svg">
<rect x="0.232955" y="0.232955" width="167.534" height="52.5341" rx="26.267" stroke="#141414" stroke-width="0.465909"/>
<path d="M31.152 32V20.8H34.976C36.096 20.8 36.96 21.056 37.568 21.568C38.176 22.08 38.48 22.784 38.48 23.68C38.48 24.352 38.304 24.896 37.952 25.328C37.6 25.76 37.104 26.048 36.464 26.208C37.232 26.336 37.856 26.608 38.304 27.056C38.752 27.504 38.992 28.112 38.992 28.88C38.992 29.872 38.64 30.64 37.968 31.184C37.296 31.728 36.32 32 35.04 32H31.152ZM35.008 21.584H32.016V25.888H35.008C35.84 25.888 36.48 25.696 36.928 25.312C37.376 24.928 37.616 24.4 37.616 23.728C37.616 23.056 37.376 22.544 36.928 22.16C36.48 21.776 35.84 21.584 35.008 21.584ZM35.04 26.672H32.016V31.216H35.04C36.032 31.216 36.784 31.024 37.312 30.608C37.824 30.208 38.096 29.648 38.096 28.928C38.096 28.192 37.824 27.632 37.296 27.248C36.752 26.864 36 26.672 35.04 26.672ZM43.9271 32.096C42.7591 32.096 41.8151 31.712 41.1111 30.944C40.3911 30.176 40.0391 29.168 40.0391 27.888C40.0391 26.688 40.3751 25.712 41.0791 24.944C41.7671 24.176 42.6631 23.792 43.7831 23.792C44.8711 23.792 45.7671 24.144 46.4391 24.816C47.1111 25.488 47.4791 26.432 47.5271 27.616C47.5271 27.648 47.5111 27.712 47.5111 27.776C47.5111 27.856 47.5111 27.92 47.5111 27.952H40.8871V28.096C40.9031 29.056 41.1751 29.84 41.7191 30.448C42.2631 31.056 42.9671 31.36 43.8631 31.36C44.5351 31.36 45.1111 31.184 45.6071 30.816C46.0871 30.448 46.4231 29.952 46.5831 29.312H47.4151C47.2231 30.144 46.8231 30.816 46.1831 31.328C45.5431 31.84 44.7911 32.096 43.9271 32.096ZM40.9511 27.264H46.6471C46.5831 26.4 46.2951 25.712 45.7831 25.232C45.2711 24.752 44.5991 24.512 43.7991 24.512C43.0311 24.512 42.3911 24.768 41.8471 25.28C41.3031 25.792 41.0151 26.464 40.9511 27.264ZM52.356 32.096C51.204 32.096 50.276 31.728 49.572 30.96C48.868 30.208 48.516 29.2 48.516 27.952C48.516 26.72 48.868 25.712 49.588 24.944C50.292 24.176 51.22 23.792 52.372 23.792C53.284 23.792 54.036 24.032 54.644 24.512C55.252 24.992 55.636 25.664 55.812 26.496H54.964C54.804 25.888 54.5 25.392 54.052 25.04C53.588 24.688 53.028 24.512 52.356 24.512C51.46 24.512 50.724 24.832 50.18 25.472C49.62 26.112 49.348 26.944 49.348 27.952C49.348 28.96 49.62 29.776 50.18 30.416C50.74 31.056 51.46 31.36 52.356 31.36C53.028 31.36 53.588 31.184 54.052 30.832C54.5 30.48 54.804 30 54.948 29.392H55.812C55.652 30.224 55.252 30.896 54.644 31.376C54.036 31.856 53.268 32.096 52.356 32.096ZM60.6621 32.096C59.5101 32.096 58.5821 31.712 57.8621 30.944C57.1261 30.176 56.7741 29.168 56.7741 27.936C56.7741 26.72 57.1261 25.712 57.8621 24.944C58.5821 24.176 59.5101 23.792 60.6621 23.792C61.7981 23.792 62.7261 24.176 63.4621 24.944C64.1981 25.712 64.5661 26.72 64.5661 27.936C64.5661 29.168 64.1981 30.176 63.4781 30.944C62.7421 31.712 61.8141 32.096 60.6621 32.096ZM60.6621 31.36C61.5581 31.36 62.2941 31.056 62.8701 30.416C63.4301 29.776 63.7181 28.96 63.7181 27.936C63.7181 26.944 63.4301 26.112 62.8541 25.472C62.2781 24.832 61.5581 24.512 60.6621 24.512C59.7661 24.512 59.0301 24.832 58.4541 25.472C57.8781 26.112 57.6061 26.944 57.6061 27.936C57.6061 28.96 57.8781 29.776 58.4541 30.416C59.0141 31.056 59.7501 31.36 60.6621 31.36ZM74.9235 23.792C75.8195 23.792 76.5395 24.096 77.0835 24.672C77.6275 25.248 77.9155 26.128 77.9155 27.296V32H77.0835V27.328C77.0835 26.432 76.8755 25.744 76.4915 25.264C76.0915 24.784 75.5315 24.544 74.8275 24.544C74.0595 24.544 73.4515 24.832 73.0035 25.376C72.5555 25.92 72.3155 26.656 72.2995 27.584V32H71.4835V27.408C71.4835 26.48 71.2755 25.776 70.8755 25.28C70.4595 24.8 69.8995 24.544 69.1955 24.544C68.4275 24.544 67.8035 24.848 67.3555 25.456C66.9075 26.064 66.6835 26.88 66.6835 27.872V32H65.8675V23.888H66.5715L66.6995 25.616C67.1955 24.4 68.0755 23.792 69.3395 23.792C69.9795 23.792 70.5395 23.968 71.0195 24.32C71.4835 24.672 71.8195 25.168 72.0115 25.824C72.2515 25.2 72.6195 24.704 73.1155 24.336C73.5955 23.984 74.2035 23.792 74.9235 23.792ZM82.8659 32.096C81.6979 32.096 80.7539 31.712 80.0499 30.944C79.3299 30.176 78.9779 29.168 78.9779 27.888C78.9779 26.688 79.3139 25.712 80.0179 24.944C80.7059 24.176 81.6019 23.792 82.7219 23.792C83.8099 23.792 84.7059 24.144 85.3779 24.816C86.0499 25.488 86.4179 26.432 86.4659 27.616C86.4659 27.648 86.4499 27.712 86.4499 27.776C86.4499 27.856 86.4499 27.92 86.4499 27.952H79.8259V28.096C79.8419 29.056 80.1139 29.84 80.6579 30.448C81.2019 31.056 81.9059 31.36 82.8019 31.36C83.4739 31.36 84.0499 31.184 84.5459 30.816C85.0259 30.448 85.3619 29.952 85.5219 29.312H86.3539C86.1619 30.144 85.7619 30.816 85.1219 31.328C84.4819 31.84 83.7299 32.096 82.8659 32.096ZM79.8899 27.264H85.5859C85.5219 26.4 85.2339 25.712 84.7219 25.232C84.2099 24.752 83.5379 24.512 82.7379 24.512C81.9699 24.512 81.3299 24.768 80.7859 25.28C80.2419 25.792 79.9539 26.464 79.8899 27.264ZM98.8872 31.248H99.1912V32H98.7112C98.2312 32 97.8792 31.904 97.6712 31.68C97.4472 31.456 97.3512 31.104 97.3832 30.624V30.336C96.8072 31.52 95.7672 32.096 94.2632 32.096C93.3832 32.096 92.6792 31.888 92.1672 31.472C91.6552 31.056 91.3992 30.496 91.3992 29.776C91.3992 29.008 91.6712 28.416 92.2152 28C92.7592 27.584 93.5592 27.36 94.5992 27.36H97.3512V26.656C97.3512 25.984 97.1432 25.472 96.7272 25.088C96.3112 24.704 95.7192 24.512 94.9672 24.512C94.2952 24.512 93.7352 24.672 93.3192 24.96C92.8872 25.248 92.6152 25.648 92.5192 26.16H91.7032C91.7992 25.424 92.1512 24.848 92.7272 24.432C93.3032 24.016 94.0712 23.792 94.9992 23.792C96.0072 23.792 96.7912 24.048 97.3352 24.544C97.8792 25.056 98.1672 25.76 98.1672 26.688V30.464C98.1672 30.768 98.2152 30.976 98.3272 31.088C98.4392 31.2 98.6312 31.248 98.8872 31.248ZM97.3512 28.72V28.064H94.5352C93.7832 28.064 93.2072 28.208 92.8232 28.496C92.4232 28.784 92.2312 29.2 92.2312 29.728C92.2312 30.24 92.4072 30.64 92.7912 30.944C93.1752 31.248 93.6872 31.392 94.3272 31.392C95.2552 31.392 95.9912 31.152 96.5352 30.656C97.0792 30.16 97.3512 29.52 97.3512 28.72ZM107.491 32.096C106.339 32.096 105.411 31.728 104.707 30.96C104.003 30.208 103.651 29.2 103.651 27.952C103.651 26.72 104.003 25.712 104.723 24.944C105.427 24.176 106.355 23.792 107.507 23.792C108.419 23.792 109.171 24.032 109.779 24.512C110.387 24.992 110.771 25.664 110.947 26.496H110.099C109.939 25.888 109.635 25.392 109.187 25.04C108.723 24.688 108.163 24.512 107.491 24.512C106.595 24.512 105.859 24.832 105.315 25.472C104.755 26.112 104.483 26.944 104.483 27.952C104.483 28.96 104.755 29.776 105.315 30.416C105.875 31.056 106.595 31.36 107.491 31.36C108.163 31.36 108.723 31.184 109.187 30.832C109.635 30.48 109.939 30 110.083 29.392H110.947C110.787 30.224 110.387 30.896 109.779 31.376C109.171 31.856 108.403 32.096 107.491 32.096ZM112.213 32V20.8H113.029V32H112.213ZM115.044 22.176C114.884 22.176 114.74 22.128 114.628 22.016C114.516 21.92 114.468 21.776 114.468 21.6C114.468 21.44 114.516 21.296 114.628 21.184C114.74 21.088 114.884 21.024 115.044 21.024C115.204 21.024 115.332 21.088 115.444 21.184C115.556 21.296 115.62 21.44 115.62 21.6C115.62 21.776 115.556 21.92 115.444 22.016C115.332 22.128 115.204 22.176 115.044 22.176ZM114.628 32V23.888H115.444V32H114.628ZM120.626 32.096C119.458 32.096 118.514 31.712 117.81 30.944C117.09 30.176 116.738 29.168 116.738 27.888C116.738 26.688 117.074 25.712 117.778 24.944C118.466 24.176 119.362 23.792 120.482 23.792C121.57 23.792 122.466 24.144 123.138 24.816C123.81 25.488 124.178 26.432 124.226 27.616C124.226 27.648 124.21 27.712 124.21 27.776C124.21 27.856 124.21 27.92 124.21 27.952H117.586V28.096C117.602 29.056 117.874 29.84 118.418 30.448C118.962 31.056 119.666 31.36 120.562 31.36C121.234 31.36 121.81 31.184 122.306 30.816C122.786 30.448 123.122 29.952 123.282 29.312H124.114C123.922 30.144 123.522 30.816 122.882 31.328C122.242 31.84 121.49 32.096 120.626 32.096ZM117.65 27.264H123.346C123.282 26.4 122.994 25.712 122.482 25.232C121.97 24.752 121.298 24.512 120.498 24.512C119.73 24.512 119.09 24.768 118.546 25.28C118.002 25.792 117.714 26.464 117.65 27.264ZM129.263 23.792C130.223 23.792 131.007 24.096 131.583 24.704C132.159 25.312 132.463 26.24 132.463 27.456V32H131.647V27.488C131.647 26.544 131.423 25.824 130.975 25.312C130.527 24.8 129.919 24.544 129.135 24.544C128.271 24.544 127.583 24.864 127.087 25.488C126.575 26.112 126.335 26.944 126.335 28V32H125.519V23.888H126.223L126.351 25.616C126.591 25.072 126.959 24.624 127.455 24.288C127.935 23.968 128.543 23.792 129.263 23.792ZM134.557 30.112V24.64H133.021V23.888H134.557V21.616H135.373V23.888H137.565V24.64H135.373V30.096C135.373 30.512 135.453 30.816 135.629 30.992C135.789 31.168 136.093 31.248 136.525 31.248H137.645V32H136.461C135.773 32 135.277 31.856 134.989 31.552C134.701 31.264 134.557 30.784 134.557 30.112Z" fill="black"/>
</svg>
