<svg width="103" height="42" viewBox="0 0 103 42" fill="none" xmlns="http://www.w3.org/2000/svg">
<rect x="14.3589" y="0.358926" width="74.3532" height="40.9962" rx="20.4981" stroke="white" stroke-width="0.717851"/>
<path d="M39.1531 25.357H36.2243V17.3171H39.1531C41.657 17.3171 43.3224 18.9595 43.3224 21.3256C43.3224 23.6801 41.657 25.357 39.1531 25.357ZM37.9471 18.7528V23.9213H39.1531C40.6922 23.9213 41.5536 22.8532 41.5536 21.3256C41.5536 19.7865 40.6922 18.7528 39.1531 18.7528H37.9471ZM44.3674 25.357V17.3171H47.6408C49.4096 17.3171 50.5926 18.3623 50.5926 19.9932C50.5926 21.0269 50.0528 21.8539 49.2144 22.2559L50.7994 25.357H48.8928L47.5375 22.6579H46.0903V25.357H44.3674ZM47.503 18.7528H46.0903V21.2222H47.503C48.3185 21.2222 48.8353 20.7398 48.8353 19.9932C48.8353 19.2352 48.3185 18.7528 47.503 18.7528ZM52.7727 25.357H50.9925L53.9328 17.3171H56.0002L58.9175 25.357H57.0684L56.4481 23.5997H53.393L52.7727 25.357ZM54.9091 19.1548L53.8524 22.21H55.9772L54.9091 19.1548ZM62.8108 25.4259C60.5137 25.4259 58.9861 23.8065 58.9861 21.3371C58.9861 18.8676 60.5022 17.2482 62.9716 17.2482C64.9127 17.2482 66.2795 18.4427 66.4862 20.177H64.7634C64.5566 19.2926 63.9134 18.7068 62.9257 18.7068C61.5819 18.7068 60.7434 19.7865 60.7434 21.3371C60.7434 22.8876 61.5474 23.9673 62.9257 23.9673C63.8445 23.9673 64.7749 23.4849 64.9357 22.3593V22.2559H62.9372V20.8891H66.5322V25.357H65.3262L65.1539 24.3922C64.7289 24.955 63.9479 25.4259 62.8108 25.4259Z" fill="white"/>
<path d="M96 27V16L102.875 21.5L96 27Z" fill="white"/>
<path d="M6.875 16L6.875 27L4.80825e-07 21.5L6.875 16Z" fill="white"/>
</svg>
