<svg width="40" height="40" viewBox="0 0 40 40" fill="none" xmlns="http://www.w3.org/2000/svg">
<path d="M20 26.5416C21.2938 26.5416 22.5585 26.1579 23.6343 25.4391C24.7101 24.7203 25.5485 23.6987 26.0436 22.5034C26.5387 21.308 26.6683 19.9927 26.4159 18.7238C26.1635 17.4549 25.5405 16.2893 24.6256 15.3744C23.7107 14.4595 22.5451 13.8365 21.2762 13.5841C20.0073 13.3317 18.692 13.4613 17.4966 13.9564C16.3013 14.4515 15.2797 15.2899 14.5609 16.3657C13.8421 17.4415 13.4584 18.7062 13.4584 20C13.4581 20.8591 13.6271 21.7099 13.9557 22.5037C14.2844 23.2975 14.7662 24.0188 15.3737 24.6263C15.9812 25.2338 16.7025 25.7156 17.4963 26.0443C18.2901 26.3729 19.1409 26.5419 20 26.5416ZM20 14.3158C21.1242 14.3158 22.2232 14.6492 23.158 15.2738C24.0927 15.8983 24.8213 16.7861 25.2515 17.8247C25.6818 18.8634 25.7943 20.0063 25.575 21.1089C25.3557 22.2116 24.8143 23.2244 24.0193 24.0193C23.2244 24.8143 22.2116 25.3557 21.1089 25.575C20.0063 25.7943 18.8634 25.6818 17.8247 25.2515C16.7861 24.8213 15.8983 24.0927 15.2738 23.158C14.6492 22.2232 14.3158 21.1242 14.3158 20C14.3158 18.4925 14.9147 17.0467 15.9807 15.9807C17.0467 14.9147 18.4925 14.3158 20 14.3158ZM24.6468 20.1232C24.6472 19.5208 24.5288 18.9243 24.2985 18.3677C24.0682 17.8111 23.7305 17.3054 23.3047 16.8794C22.8789 16.4533 22.3733 16.1154 21.8168 15.8848C21.2604 15.6542 20.6639 15.5355 20.0616 15.5355V24.7084C21.2777 24.7084 22.4439 24.2253 23.3039 23.3654C24.1638 22.5055 24.6468 21.3392 24.6468 20.1232ZM19.9384 27.4653C19.8821 27.4653 19.8264 27.4764 19.7744 27.4979C19.7224 27.5194 19.6751 27.551 19.6353 27.5908C19.5955 27.6306 19.5639 27.6779 19.5424 27.7299C19.5208 27.7819 19.5097 27.8377 19.5097 27.8939V30.8213C19.5097 30.935 19.5549 31.044 19.6353 31.1244C19.7157 31.2048 19.8247 31.25 19.9384 31.25C20.0521 31.25 20.1612 31.2048 20.2415 31.1244C20.3219 31.044 20.3671 30.935 20.3671 30.8213V27.8868C20.3671 27.7731 20.3219 27.6641 20.2415 27.5837C20.1612 27.5033 20.0521 27.4582 19.9384 27.4582V27.4653ZM25.8358 25.3337C25.7541 25.2762 25.6549 25.2492 25.5553 25.2571C25.4557 25.265 25.362 25.3075 25.2904 25.3771C25.2188 25.4467 25.1738 25.5392 25.1631 25.6385C25.1524 25.7378 25.1767 25.8378 25.2318 25.9211L27.3066 27.9958C27.3885 28.068 27.4948 28.1063 27.604 28.1027C27.7131 28.0992 27.8168 28.0542 27.8938 27.9768C27.9709 27.8994 28.0155 27.7956 28.0186 27.6864C28.0217 27.5773 27.9831 27.4711 27.9105 27.3895L25.8358 25.3337ZM27.4582 20.0782C27.4582 20.1919 27.5033 20.3009 27.5837 20.3813C27.6641 20.4617 27.7731 20.5068 27.8868 20.5068H30.8213C30.8776 20.5068 30.9334 20.4958 30.9854 20.4742C31.0374 20.4527 31.0846 20.4211 31.1244 20.3813C31.1642 20.3415 31.1958 20.2942 31.2174 20.2422C31.2389 20.1902 31.25 20.1345 31.25 20.0782C31.25 20.0219 31.2389 19.9661 31.2174 19.9141C31.1958 19.8621 31.1642 19.8148 31.1244 19.775C31.0846 19.7352 31.0374 19.7036 30.9854 19.6821C30.9334 19.6606 30.8776 19.6495 30.8213 19.6495H27.8868C27.776 19.6494 27.6694 19.6923 27.5894 19.7691C27.5095 19.846 27.4624 19.9508 27.4582 20.0616V20.0782ZM25.9211 14.7682L27.9958 12.6934C28.068 12.6115 28.1063 12.5052 28.1027 12.396C28.0992 12.2869 28.0542 12.1832 27.9768 12.1062C27.8994 12.0291 27.7956 11.9845 27.6864 11.9814C27.5773 11.9783 27.4711 12.0169 27.3895 12.0895L25.3147 14.1642C25.2425 14.2461 25.2043 14.3525 25.2078 14.4616C25.2113 14.5707 25.2564 14.6744 25.3337 14.7515C25.4111 14.8285 25.5149 14.8732 25.6241 14.8763C25.7332 14.8794 25.8394 14.8407 25.9211 14.7682ZM20.0592 12.5418C20.1729 12.5418 20.2819 12.4967 20.3623 12.4163C20.4427 12.3359 20.4879 12.2269 20.4879 12.1132V9.17868C20.4879 9.06499 20.4427 8.95595 20.3623 8.87556C20.2819 8.79516 20.1729 8.75 20.0592 8.75C19.9455 8.75 19.8365 8.79516 19.7561 8.87556C19.6757 8.95595 19.6305 9.06499 19.6305 9.17868V12.1132C19.6305 12.1697 19.6417 12.2256 19.6634 12.2778C19.6851 12.3299 19.7169 12.3773 19.7569 12.4171C19.797 12.457 19.8445 12.4885 19.8968 12.5099C19.9491 12.5313 20.0051 12.5422 20.0616 12.5418H20.0592ZM14.1618 14.6734C14.2438 14.7365 14.3457 14.7679 14.449 14.7618C14.5522 14.7556 14.6498 14.7124 14.7236 14.6399C14.7975 14.5675 14.8426 14.4709 14.8508 14.3678C14.859 14.2647 14.8297 14.1621 14.7682 14.0789L12.6934 12.0042C12.6546 11.9605 12.6072 11.9252 12.5542 11.9005C12.5012 11.8758 12.4437 11.8622 12.3852 11.8605C12.3267 11.8588 12.2685 11.8691 12.2142 11.8908C12.1599 11.9125 12.1106 11.945 12.0693 11.9865C12.028 12.0279 11.9957 12.0774 11.9742 12.1318C11.9527 12.1862 11.9427 12.2444 11.9445 12.3029C11.9464 12.3613 11.9603 12.4188 11.9852 12.4717C12.0101 12.5246 12.0456 12.5718 12.0895 12.6105L14.1618 14.6734ZM9.18816 20.3576H12.1132C12.2269 20.3576 12.3359 20.3125 12.4163 20.2321C12.4967 20.1517 12.5418 20.0426 12.5418 19.9289C12.5418 19.8153 12.4967 19.7062 12.4163 19.6258C12.3359 19.5454 12.2269 19.5003 12.1132 19.5003H9.17868C9.12239 19.5003 9.06664 19.5114 9.01463 19.5329C8.96262 19.5544 8.91537 19.586 8.87556 19.6258C8.83575 19.6656 8.80418 19.7129 8.78263 19.7649C8.76109 19.8169 8.75 19.8727 8.75 19.9289C8.75 19.9852 8.76109 20.041 8.78263 20.093C8.80418 20.145 8.83575 20.1923 8.87556 20.2321C8.91537 20.2719 8.96262 20.3035 9.01463 20.325C9.06664 20.3465 9.12239 20.3576 9.17868 20.3576H9.18816ZM14.3987 25.0945C14.3423 25.0941 14.2865 25.105 14.2344 25.1265C14.1823 25.1481 14.1351 25.1799 14.0955 25.22L12.0208 27.2947C11.9807 27.3344 11.9489 27.3816 11.9271 27.4336C11.9054 27.4857 11.8942 27.5415 11.8942 27.5979C11.8942 27.6543 11.9054 27.7101 11.9271 27.7622C11.9489 27.8142 11.9807 27.8614 12.0208 27.9011C12.1015 27.9809 12.2104 28.0257 12.3239 28.0257C12.4375 28.0257 12.5464 27.9809 12.6271 27.9011L14.7018 25.8239C14.761 25.7639 14.8011 25.6877 14.8172 25.6049C14.8333 25.5222 14.8246 25.4365 14.7923 25.3586C14.7599 25.2808 14.7053 25.2142 14.6353 25.1672C14.5653 25.1202 14.483 25.0949 14.3987 25.0945Z" fill="#141414"/>
<circle cx="20" cy="20" r="19.75" stroke="#141414" stroke-width="0.5"/>
</svg>
