<svg width="34" height="39" viewBox="0 0 34 39" fill="none" xmlns="http://www.w3.org/2000/svg">
<path fill-rule="evenodd" clip-rule="evenodd" d="M17.0575 2.64338L17.0575 37.8987L16.0575 37.8987L16.0575 3.39912L1.20711 18.2495L0.499999 17.5424L16.0575 1.98491L16.0575 1.82337L16.219 1.82337L16.5818 1.46059L16.9354 1.10704L17.2889 1.46059L33.3708 17.5424L32.6636 18.2495L17.0575 2.64338Z" fill="#424242"/>
<path d="M17.0575 2.64338L17.305 2.39589L16.7075 1.7984L16.7075 2.64338L17.0575 2.64338ZM17.0575 37.8987L17.0575 38.2487L17.4075 38.2487L17.4075 37.8987L17.0575 37.8987ZM16.0575 37.8987L15.7075 37.8987L15.7075 38.2487L16.0575 38.2487L16.0575 37.8987ZM16.0575 3.39912L16.4075 3.39912L16.4075 2.55415L15.81 3.15164L16.0575 3.39912ZM1.20711 18.2495L0.959618 18.497L1.20711 18.7445L1.45459 18.497L1.20711 18.2495ZM0.499999 17.5424L0.252512 17.2949L0.0050245 17.5424L0.252512 17.7899L0.499999 17.5424ZM16.0575 1.98491L16.305 2.23239L16.4075 2.12988L16.4075 1.98491L16.0575 1.98491ZM16.0575 1.82337L16.0575 1.47337L15.7075 1.47337L15.7075 1.82337L16.0575 1.82337ZM16.219 1.82337L16.219 2.17337L16.364 2.17337L16.4665 2.07085L16.219 1.82337ZM16.5818 1.46059L16.3343 1.2131L16.5818 1.46059ZM16.9354 1.10704L17.1829 0.85955L16.9354 0.61206L16.6879 0.85955L16.9354 1.10704ZM17.2889 1.46059L17.0414 1.70808L17.2889 1.46059ZM33.3708 17.5424L33.6182 17.7899L33.8657 17.5424L33.6182 17.2949L33.3708 17.5424ZM32.6636 18.2495L32.4162 18.497L32.6636 18.7445L32.9111 18.497L32.6636 18.2495ZM16.7075 2.64338L16.7075 37.8987L17.4075 37.8987L17.4075 2.64338L16.7075 2.64338ZM17.0575 37.5487L16.0575 37.5487L16.0575 38.2487L17.0575 38.2487L17.0575 37.5487ZM16.4075 37.8987L16.4075 3.39912L15.7075 3.39912L15.7075 37.8987L16.4075 37.8987ZM15.81 3.15164L0.959619 18.002L1.45459 18.497L16.305 3.64661L15.81 3.15164ZM1.45459 18.002L0.747487 17.2949L0.252512 17.7899L0.959618 18.497L1.45459 18.002ZM0.747486 17.7899L16.305 2.23239L15.81 1.73742L0.252512 17.2949L0.747486 17.7899ZM16.4075 1.98491L16.4075 1.82337L15.7075 1.82337L15.7075 1.98491L16.4075 1.98491ZM16.0575 2.17337L16.219 2.17337L16.219 1.47337L16.0575 1.47337L16.0575 2.17337ZM16.4665 2.07085L16.8293 1.70808L16.3343 1.2131L15.9716 1.57588L16.4665 2.07085ZM16.8293 1.70808L17.1829 1.35452L16.6879 0.85955L16.3343 1.2131L16.8293 1.70808ZM16.6879 1.35452L17.0414 1.70808L17.5364 1.2131L17.1829 0.85955L16.6879 1.35452ZM17.0414 1.70808L33.1233 17.7899L33.6182 17.2949L17.5364 1.2131L17.0414 1.70808ZM33.1233 17.2949L32.4162 18.002L32.9111 18.497L33.6182 17.7899L33.1233 17.2949ZM32.9111 18.002L17.305 2.39589L16.81 2.89086L32.4162 18.497L32.9111 18.002Z" fill="#424242"/>
</svg>
