<svg width="30" height="30" viewBox="0 0 30 30" fill="none" xmlns="http://www.w3.org/2000/svg">
<path fill-rule="evenodd" clip-rule="evenodd" d="M27.6372 2.79429L2.70792 27.7235L2.00082 27.0164L26.3957 2.62157L5.39405 2.62157L5.39405 1.62157H27.3957L27.5099 1.50734L27.6241 1.62157H28.1372H28.6372V2.12157V24.8647H27.6372V2.79429Z" fill="#F9F1F1"/>
<path d="M27.6372 2.79429H28.6372V0.380072L26.9301 2.08718L27.6372 2.79429ZM2.70792 27.7235L2.00082 28.4307L2.70792 29.1378L3.41503 28.4307L2.70792 27.7235ZM2.00082 27.0164L1.29371 26.3093L0.586603 27.0164L1.29371 27.7235L2.00082 27.0164ZM26.3957 2.62157L27.1028 3.32868L28.8099 1.62157L26.3957 1.62157L26.3957 2.62157ZM5.39405 2.62157L4.39405 2.62157L4.39405 3.62157L5.39405 3.62157L5.39405 2.62157ZM5.39405 1.62157L5.39405 0.62157L4.39406 0.62157L4.39405 1.62157L5.39405 1.62157ZM27.3957 1.62157V2.62157H27.8099L28.1028 2.32868L27.3957 1.62157ZM27.5099 1.50734L28.217 0.800237L27.5099 0.0931299L26.8028 0.800237L27.5099 1.50734ZM27.6241 1.62157L26.917 2.32868L27.2099 2.62157L27.6241 2.62157V1.62157ZM28.6372 1.62157H29.6372V0.62157L28.6372 0.62157V1.62157ZM28.6372 24.8647V25.8647H29.6372V24.8647H28.6372ZM27.6372 24.8647H26.6372V25.8647L27.6372 25.8647V24.8647ZM26.9301 2.08718L2.00082 27.0164L3.41503 28.4307L28.3443 3.50139L26.9301 2.08718ZM3.41503 27.0164L2.70792 26.3093L1.29371 27.7235L2.00082 28.4307L3.41503 27.0164ZM2.70792 27.7235L27.1028 3.32868L25.6886 1.91446L1.29371 26.3093L2.70792 27.7235ZM26.3957 1.62157L5.39405 1.62157L5.39405 3.62157L26.3957 3.62157L26.3957 1.62157ZM6.39405 2.62157L6.39405 1.62157L4.39405 1.62157L4.39405 2.62157L6.39405 2.62157ZM5.39405 2.62157L27.3957 2.62157V0.62157H5.39405L5.39405 2.62157ZM28.1028 2.32868L28.217 2.21445L26.8028 0.800237L26.6886 0.914463L28.1028 2.32868ZM26.8028 2.21445L26.917 2.32868L28.3312 0.914463L28.217 0.800237L26.8028 2.21445ZM27.6241 2.62157H28.1372V0.62157H27.6241V2.62157ZM28.1372 2.62157H28.6372V0.62157H28.1372V2.62157ZM27.6372 1.62157V2.12157H29.6372V1.62157L27.6372 1.62157ZM27.6372 2.12157V24.8647H29.6372V2.12157H27.6372ZM28.6372 23.8647H27.6372V25.8647H28.6372V23.8647ZM28.6372 24.8647V2.79429L26.6372 2.79429V24.8647H28.6372Z" fill="#F9F1F1"/>
</svg>
