<svg width="388" height="77" viewBox="0 0 388 77" fill="none" xmlns="http://www.w3.org/2000/svg">
<rect width="388" height="77" rx="20" fill="white"/>
<path d="M123.64 40.336H125.08C125.192 41.84 126.36 42.832 128.072 42.832C129.576 42.832 130.648 42.144 130.648 40.928C130.648 39.536 129.272 39.248 127.576 38.96C125.768 38.656 123.912 38.064 123.912 35.888C123.912 33.984 125.464 32.704 127.736 32.704C130.232 32.704 131.768 34.096 131.896 36.112H130.456C130.296 34.816 129.256 33.968 127.736 33.968C126.28 33.968 125.304 34.608 125.304 35.808C125.304 37.152 126.664 37.424 128.344 37.712C130.168 38.016 132.04 38.624 132.04 40.8C132.04 42.736 130.408 44.096 128.056 44.096C125.32 44.096 123.72 42.544 123.64 40.336ZM133.807 44V32.8H140.943V34.08H135.199V37.664H139.983V38.944H135.199V42.72H141.151V44H133.807ZM144.073 44H142.713V32.8H143.993L150.009 41.44V32.8H151.369V44H150.089L144.073 35.36V44ZM157.125 44H153.541V32.8H157.125C160.629 32.8 162.757 35.04 162.757 38.4C162.757 41.744 160.629 44 157.125 44ZM154.933 34.08V42.72H157.125C159.845 42.72 161.333 41.008 161.333 38.4C161.333 35.776 159.845 34.08 157.125 34.08H154.933ZM168.697 44V32.8H172.985C175.225 32.8 176.713 34.144 176.713 36.24C176.713 37.808 175.769 39.024 174.329 39.424L176.841 44H175.273L172.905 39.696H170.089V44H168.697ZM172.889 34.08H170.089V38.416H172.873C174.345 38.416 175.289 37.552 175.289 36.24C175.289 34.928 174.345 34.08 172.889 34.08ZM178.479 44V32.8H179.871V44H178.479ZM186.889 44.096C183.785 44.096 181.625 41.792 181.625 38.4C181.625 35.008 183.721 32.704 186.969 32.704C189.449 32.704 191.321 34.144 191.705 36.448H190.217C189.833 34.896 188.633 33.984 186.937 33.984C184.585 33.984 183.049 35.808 183.049 38.4C183.049 40.992 184.585 42.816 186.905 42.816C188.969 42.816 190.457 41.584 190.457 39.6V39.216H187.097V37.936H191.817V44H190.617L190.521 42.368C190.009 43.184 188.809 44.096 186.889 44.096ZM193.994 44V32.8H195.386V37.664H201.178V32.8H202.57V44H201.178V38.944H195.386V44H193.994ZM203.976 34.08V32.8H212.632V34.08H209V44H207.608V34.08H203.976ZM218.757 44H217.317L221.589 32.8H223.237L227.493 44H226.005L224.821 40.976H219.941L218.757 44ZM222.373 34.32L220.357 39.712H224.405L222.373 34.32ZM230.004 44L226.74 32.8H228.196L230.82 42.208L233.572 32.8H234.98L237.636 42.208L240.276 32.8H241.716L238.436 44H236.772L234.212 35.12L231.668 44H230.004ZM242.397 44H240.957L245.229 32.8H246.877L251.133 44H249.645L248.461 40.976H243.581L242.397 44ZM246.013 34.32L243.997 39.712H248.045L246.013 34.32ZM254.087 39.856L249.863 32.8H251.495L254.791 38.352L258.135 32.8H259.703L255.479 39.856V44H254.087V39.856ZM262.452 40.784H261.54L261.14 32.576H262.852L262.452 40.784ZM260.996 43.136C260.996 42.7413 261.092 42.464 261.284 42.304C261.476 42.144 261.71 42.064 261.988 42.064C262.254 42.064 262.484 42.144 262.676 42.304C262.878 42.464 262.98 42.7413 262.98 43.136C262.98 43.52 262.878 43.7973 262.676 43.968C262.484 44.1387 262.254 44.224 261.988 44.224C261.71 44.224 261.476 44.1387 261.284 43.968C261.092 43.7973 260.996 43.52 260.996 43.136Z" fill="#141414"/>
</svg>
